<?xml version="1.0" encoding="utf-8"?>
<!-- Generator: Adobe Illustrator 14.0.0, SVG Export Plug-In . SVG Version: 6.00 Build 43363)  -->
<!DOCTYPE svg PUBLIC "-//W3C//DTD SVG 1.1//EN" "http://www.w3.org/Graphics/SVG/1.1/DTD/svg11.dtd">
<svg version="1.1" id="Layer_1" xmlns="http://www.w3.org/2000/svg" xmlns:xlink="http://www.w3.org/1999/xlink" x="0px" y="0px"
	 width="24px" height="911px" viewBox="-2 -0.5 24 911" enable-background="new -2 -0.5 24 911" xml:space="preserve">
<image overflow="visible" width="24" height="372" id="Orig" xlink:href="css3-github-buttons-icons.png"  transform="matrix(1 0 0 1 -2 -0.5)">
</image>
<path fill="#231F20" d="M3.979,892.543c-3.301,0-5.979,2.678-5.979,5.979c0,3.301,2.68,5.979,5.979,5.979
	c3.304,0,5.979-2.678,5.979-5.979C9.958,895.221,7.282,892.543,3.979,892.543z M6.971,899.27H0.99v-1.493h5.979L6.971,899.27
	L6.971,899.27z"/>
<g id="Book">
	<rect x="2.492" y="74.277" fill="#231F20" width="2.993" height="1.479"/>
	<path fill="#231F20" d="M8.481,74.293l1.509-1.479H8.481v-1.473h-8.984C-1.331,71.342-2,71.999-2,72.809v8.805
		c0,0.81,0.669,1.467,1.497,1.467h8.984v-7.32h1.496L8.481,74.293z M6.981,81.614H0.994v-8.805h5.987V81.614L6.981,81.614z"/>
</g>
<g>
	<path d="M4,376.214c-0.555,0-1.006,0.353-1.006,0.787s0.451,0.786,1.006,0.786s1.006-0.353,1.006-0.787S4.555,376.214,4,376.214"/>
	<path d="M4,373.858c-3.332,0-6.033,3.143-6.033,3.143s2.702,3.142,6.033,3.142c3.332,0,6.033-3.143,6.033-3.143
		S7.332,373.858,4,373.858 M4,378.964c-1.388,0-2.514-0.879-2.514-1.964s1.126-1.963,2.514-1.963s2.514,0.879,2.514,1.964
		S5.388,378.964,4,378.964"/>
</g>
<g>
	<path fill="#FFFFFF" d="M16.066,376.214c-0.555,0-1.006,0.353-1.006,0.787s0.451,0.786,1.006,0.786s1.006-0.353,1.006-0.787
		S16.621,376.214,16.066,376.214"/>
	<path fill="#FFFFFF" d="M16.066,373.858c-3.332,0-6.033,3.143-6.033,3.143s2.701,3.142,6.033,3.142S22.1,377,22.1,377
		S19.398,373.858,16.066,373.858 M16.066,378.964c-1.388,0-2.514-0.879-2.514-1.964s1.126-1.963,2.514-1.963
		s2.514,0.879,2.514,1.964S17.454,378.964,16.066,378.964"/>
</g>
</svg>
